<?xml version="1.0" encoding="UTF-8"?>
<svg id="Layer_1" xmlns="http://www.w3.org/2000/svg" width="23.7" height="24.15" version="1.1" viewBox="0 0 23.7 24.15">
  <!-- Generator: Adobe Illustrator 29.0.0, SVG Export Plug-In . SVG Version: 2.1.0 Build 186)  -->
  <defs>
    <style>
      .st0 {
        fill: #001c38;
      }
    </style>
  </defs>
  <path class="st0" d="M11.85,24.151c-1.203,0-2.308-.56-3.033-1.535-.501-.674-1.324-1.024-2.141-.907-1.169.161-2.33-.224-3.176-1.064-.869-.864-1.273-2.062-1.108-3.285.114-.849-.229-1.695-.895-2.211C.546,14.412,0,13.292,0,12.075s.546-2.336,1.499-3.073c.667-.515,1.009-1.362.895-2.21-.165-1.224.239-2.421,1.107-3.285.846-.841,2.005-1.231,3.177-1.065h0c.821.116,1.638-.233,2.14-.907C9.542.56,10.647,0,11.85,0h0C13.053,0,14.158.56,14.883,1.535c.501.675,1.323,1.021,2.14.907,1.166-.166,2.331.223,3.177,1.064.869.864,1.273,2.061,1.108,3.285-.114.849.229,1.696.895,2.21.952.737,1.498,1.857,1.498,3.073s-.546,2.336-1.498,3.073c-.666.516-1.009,1.362-.895,2.21.165,1.225-.239,2.422-1.108,3.286-.847.842-2.001,1.228-3.177,1.064-.825-.119-1.64.233-2.141.907-.724.976-1.829,1.534-3.031,1.535ZM6.987,20.187c1.183,0,2.312.561,3.035,1.534.439.591,1.105.93,1.829.93.723,0,1.39-.339,1.827-.93.828-1.114,2.183-1.686,3.553-1.499.704.104,1.4-.135,1.911-.642.533-.53.781-1.268.68-2.022-.186-1.376.375-2.755,1.463-3.597.582-.45.916-1.138.916-1.886s-.334-1.437-.916-1.887c-1.088-.841-1.649-2.22-1.463-3.597.102-.754-.146-1.491-.68-2.021-.511-.508-1.212-.74-1.91-.643-1.368.191-2.725-.383-3.553-1.498-.438-.59-1.105-.929-1.828-.929h0c-.723,0-1.39.339-1.828.929-.829,1.115-2.188,1.69-3.553,1.498-.706-.097-1.4.136-1.911.643-.533.53-.78,1.267-.679,2.021.186,1.377-.375,2.756-1.463,3.597-.583.451-.917,1.138-.917,1.887s.334,1.436.917,1.887c1.088.842,1.649,2.22,1.463,3.597-.102.754.146,1.491.679,2.021.511.509,1.208.748,1.911.643.173-.023.346-.035.518-.035ZM10.426,16.519h0c-.229,0-.445-.104-.587-.284l-2.201-2.773c-.258-.325-.203-.796.121-1.054.325-.257.796-.203,1.054.121l1.615,2.035,4.462-5.603c.26-.325.732-.376,1.054-.12.324.258.378.73.12,1.054l-5.05,6.34c-.143.179-.358.283-.587.283Z"/>
</svg>