<svg xmlns="http://www.w3.org/2000/svg" width="100" height="100" fill="none"><path fill="#001C38" d="M44.248 10.282c2.516-4.497 8.988-4.497 11.504 0a6.59 6.59 0 0 0 9.125 2.445c4.428-2.637 10.033.6 9.963 5.753a6.59 6.59 0 0 0 6.68 6.68c5.154-.07 8.39 5.535 5.753 9.963a6.59 6.59 0 0 0 2.445 9.125c4.497 2.516 4.497 8.988 0 11.504a6.59 6.59 0 0 0-2.445 9.125c2.637 4.428-.6 10.033-5.753 9.963a6.59 6.59 0 0 0-6.68 6.68c.07 5.154-5.535 8.39-9.963 5.753a6.59 6.59 0 0 0-9.125 2.445c-2.516 4.497-8.988 4.497-11.504 0a6.59 6.59 0 0 0-9.125-2.445c-4.428 2.637-10.033-.6-9.963-5.753a6.59 6.59 0 0 0-6.68-6.68c-5.154.07-8.39-5.535-5.753-9.963a6.59 6.59 0 0 0-2.445-9.125c-4.497-2.516-4.497-8.988 0-11.504a6.59 6.59 0 0 0 2.445-9.125c-2.637-4.428.6-10.033 5.753-9.963 3.71.05 6.73-2.97 6.68-6.68-.07-5.154 5.535-8.39 9.963-5.753a6.59 6.59 0 0 0 9.125-2.445"/><path fill="#fff" d="m26.703 49.233-5.432-.993.15-.818 4.19-1.176-3.504-2.582.15-.818 5.432.993-.155.848-3.482-.636 3.177 2.304-.066.362-3.786 1.027 3.482.637zM30.337 38.444q-.43.708-1.044 1.026-.618.316-1.337.252-.718-.068-1.449-.51-.73-.444-1.122-1.049a2.4 2.4 0 0 1-.391-1.3q-.005-.694.424-1.402.43-.708 1.047-1.025a2.35 2.35 0 0 1 1.334-.254q.72.064 1.45.508.732.443 1.12 1.051.393.606.395 1.302.003.693-.427 1.4m-.745-.452q.292-.474.27-.917a1.5 1.5 0 0 0-.312-.84 2.75 2.75 0 0 0-.808-.71 2.7 2.7 0 0 0-.995-.383 1.5 1.5 0 0 0-.886.113q-.403.186-.699.657-.291.474-.269.918.023.444.312.839.291.392.81.706.517.315.997.39.475.073.88-.112.406-.189.7-.66M33.369 34.111l-3.51-4.264.723-.594 4.451 1.377-2.474-3.005.723-.595 3.51 4.264-.723.594-4.452-1.377 2.474 3.005zM39.29 29.729l-2.113-5.102 3.295-1.365.331.8-2.44 1.012.52 1.258 2.016-.835.332.8-2.016.836.598 1.442 2.44-1.012.332.8zM47.1 27.301l-.249-2.248-2.227-3.033 1.07-.119L47.2 23.95l1.015-2.328 1.071-.118-1.504 3.446.25 2.25zM52.483 25.044l.104-.717 2.277.33-.104.718zM57.494 28.182l2.146-5.089 2.017.851q.517.217.757.565.246.345.27.733.026.39-.118.733-.178.42-.503.63a1.05 1.05 0 0 1-.707.167l.074-.177q.434.313.536.763.105.452-.081.894a1.9 1.9 0 0 1-.507.718 1.35 1.35 0 0 1-.74.313q-.42.048-.921-.164zm1.2-.439 1.255.53q.222.093.437.08a.74.74 0 0 0 .383-.139.8.8 0 0 0 .267-.349.8.8 0 0 0 .067-.405.7.7 0 0 0-.15-.367.86.86 0 0 0-.364-.27l-1.28-.54zm.951-2.254 1.145.483a.8.8 0 0 0 .358.067.6.6 0 0 0 .318-.111.7.7 0 0 0 .228-.304.67.67 0 0 0 .017-.513q-.096-.247-.4-.376l-1.144-.483zM63.372 30.647l4.915-3.06 1.028.881-2.272 5.326-.722-.619 2.025-4.79.157.135-4.41 2.746zm1.515-.277.561-.655 2.202 1.887-.562.655zM70.248 38.584q-.415-.717-.4-1.408.02-.694.42-1.294.404-.597 1.143-1.026.74-.428 1.459-.482.72-.05 1.328.281.612.328 1.027 1.045.479.826.383 1.617a2.5 2.5 0 0 1-.664 1.418l-.69-.678q.388-.411.456-.897.07-.489-.238-1.023-.279-.481-.681-.678a1.53 1.53 0 0 0-.887-.13q-.48.066-1.006.367-.524.303-.824.69a1.52 1.52 0 0 0-.323.834q-.03.447.25.928.31.534.769.715t1.005.052l.245.935a2.52 2.52 0 0 1-1.563-.127q-.73-.312-1.21-1.139M72.68 43.763l5.41-1.107.186.905-2.51.514 2.952 1.646.228 1.113-3.129-1.783-2.249 3.048-.235-1.15 2.058-2.797-2.525.517zM23.167 61.915a2.7 2.7 0 0 1-.223-1.001 2.4 2.4 0 0 1 .192-.978 2.6 2.6 0 0 1 .613-.862 3.5 3.5 0 0 1 1.05-.664q.834-.355 1.555-.295.724.057 1.269.464.547.405.836 1.081.399.939.195 1.672-.2.735-.904 1.265l-.507-.81a1.6 1.6 0 0 0 .519-.779q.131-.444-.085-.952-.21-.515-.585-.755-.374-.242-.863-.237a2.8 2.8 0 0 0-1.046.245q-.558.238-.898.583-.338.345-.422.78-.084.44.127.955.16.386.425.615.267.228.635.288.37.06.836-.064l-.382-.896.667-.284.766 1.799a2 2 0 0 1-.161.081l-.13.06q-.718.305-1.402.26a2.3 2.3 0 0 1-1.22-.44q-.543-.394-.857-1.13M28.106 69.91a2.4 2.4 0 0 1-.571-1.047 1.97 1.97 0 0 1 .045-1.086q.179-.533.67-.969l2.589-2.299.627.695-2.578 2.289q-.233.206-.348.447a1.3 1.3 0 0 0-.121.492 1.2 1.2 0 0 0 .083.48q.09.234.255.42.17.193.389.306.224.113.47.137.25.02.5-.066.254-.085.483-.289l2.578-2.289.62.7-2.594 2.304q-.49.435-1.043.547a1.94 1.94 0 0 1-1.085-.084 2.4 2.4 0 0 1-.97-.688M33.569 74.302l4.26-3.921 1.174.674-1.241 5.656-.825-.474 1.098-5.083.18.103-3.822 3.519zm1.437-.554.43-.748 2.514 1.444-.43.748zM41.884 78.567l1.161-5.398 2.23.48a4 4 0 0 1 .425.122q.454.172.706.477.255.307.323.705.072.396-.024.842-.143.66-.578 1.065-.435.4-1.15.364l-.393-.049-1.391-.3-.406 1.887zm3.1.667-.592-2.426.962-.005.654 2.651zm-1.61-3.202 1.29.278q.075.015.17.028t.18.008a.7.7 0 0 0 .394-.123.8.8 0 0 0 .253-.283q.096-.168.133-.34.035-.173.02-.365a.8.8 0 0 0-.114-.366.7.7 0 0 0-.31-.274.8.8 0 0 0-.167-.064 2 2 0 0 0-.167-.043l-1.29-.278zM50.758 79.85l1.194-5.667 1.348-.132 2.271 5.326-.947.093-2.055-4.777.206-.02-1.07 5.083zm.85-1.286-.085-.86 2.885-.282.084.859zM60.01 78.266l-2.257-5.04.854-.382 3.928 2.506-1.59-3.553.854-.382 2.256 5.04-.854.382-3.928-2.506 1.59 3.553zM69.512 72.68l-3.106-3.468-1.331 1.192-.579-.645 3.35-3.002.58.645-1.332 1.193 3.107 3.468zM74.11 67.805l-4.684-2.925 1.888-3.025.736.459-1.4 2.241 1.155.721 1.156-1.85.735.458-1.155 1.851 1.324.827 1.399-2.242.735.46zM77.885 60.865l-5.293-1.577 1.018-3.418.831.247-.754 2.533 1.304.388.623-2.09.83.247-.622 2.09 1.496.447.754-2.533.83.248z"/><path stroke="#fff" stroke-width="3.28" d="m39.835 51.16 6.464 7.985 14.83-18.252"/></svg>